<?xml version="1.0" encoding="UTF-8" standalone="no" ?>
<!DOCTYPE svg PUBLIC "-//W3C//DTD SVG 1.1//EN" "http://www.w3.org/Graphics/SVG/1.1/DTD/svg11.dtd">
<svg xmlns="http://www.w3.org/2000/svg" xmlns:xlink="http://www.w3.org/1999/xlink" version="1.1" width="1080" height="1080" viewBox="0 0 1080 1080" xml:space="preserve">
<desc>Created with Fabric.js 5.2.4</desc>
<defs>
</defs>
<g transform="matrix(1 0 0 1 540 540)" id="d0984ad4-ce50-4984-ab9e-69ca04e7be0a"  >
<rect style="stroke: none; stroke-width: 1; stroke-dasharray: none; stroke-linecap: butt; stroke-dashoffset: 0; stroke-linejoin: miter; stroke-miterlimit: 4; fill: rgb(255,255,255); fill-rule: nonzero; opacity: 1; visibility: hidden;" vector-effect="non-scaling-stroke"  x="-540" y="-540" rx="0" ry="0" width="1080" height="1080" />
</g>
<g transform="matrix(1 0 0 1 540 540)" id="c3e7e82c-7761-4b82-84d4-f64df6d938d4"  >
</g>
<g transform="matrix(20.21 0 0 20.21 494.82 524.1)" id="353f903c-95a3-444d-837c-58c1647cc706"  >
<path style="stroke: rgb(0,0,0); stroke-width: 0; stroke-dasharray: none; stroke-linecap: butt; stroke-dashoffset: 0; stroke-linejoin: miter; stroke-miterlimit: 4; fill: rgb(210,118,133); fill-rule: nonzero; opacity: 1;" vector-effect="non-scaling-stroke"  transform=" translate(-24, -23.5)" d="M 24 44 Q 18.1 44 14.05 39.95 Q 10 35.9 10 30 L 10 17 Q 10 11.1 14.05 7.050000000000001 Q 18.1 3 24 3 Q 29.9 3 33.95 7.05 Q 38 11.1 38 17 L 38 30 Q 38 35.9 33.95 39.95 Q 29.9 44 24 44 Z M 25.5 17 L 35 17 Q 35 12.95 32.35 9.8 Q 29.700000000000003 6.65 25.5 6.1000000000000005 Z M 13 17 L 22.5 17 L 22.5 6.1 Q 18.3 6.6499999999999995 15.65 9.8 Q 13 12.95 13 17 Z M 24 41 Q 28.55 41 31.775 37.775 Q 35 34.55 35 30 L 35 20 L 13 20 L 13 30 Q 13 34.55 16.225 37.775 Q 19.45 41 24 41 Z M 24 20 Z M 25.5 17 Z M 22.5 17 Z M 24 20 Z" stroke-linecap="round" />
</g>
<g transform="matrix(NaN NaN NaN NaN 0 0)"  >
<g style=""   >
</g>
</g>
</svg>